<svg viewBox="0 0 210 210" xmlns="http://www.w3.org/2000/svg">
    <path fill="#FC6D26" d="M105.0614 207.8797L105.0594 207.8797 105.0614 207.8797z"/>
    <path fill="#E24329" d="M105.0614 207.8797L67.8264 95.6547 142.2964 95.6547z"/>
    <path fill="#FC6D26" d="M105.0614 207.8797L142.2964 95.6547 194.9014 95.6547z"/>
    <path fill="#FCA326" d="M194.9014 95.6547L207.5614 132.8547C208.5614 135.8547 207.5614 139.1547 205.0614 141.0547L105.0614 207.8797z"/>
    <path fill="#E24329" d="M194.9014 95.6547L142.2964 95.6547 164.3514 27.8547C165.3514 24.8547 169.5614 24.8547 170.5614 27.8547z"/>
    <path fill="#FC6D26" d="M105.0614 207.8797L67.8264 95.6547 15.2214 95.6547z"/>
    <path fill="#FCA326" d="M15.2214 95.6547L2.5614 132.8547C1.5614 135.8547 2.5614 139.1547 5.0614 141.0547L105.0614 207.8797z"/>
    <path fill="#E24329" d="M15.2214 95.6547L67.8264 95.6547 45.7714 27.8547C44.7714 24.8547 40.5614 24.8547 39.5614 27.8547z"/>
</svg>
